<svg width="45" height="45" viewBox="0 0 45 45" fill="none" xmlns="http://www.w3.org/2000/svg">
<path d="M20.1699 32.194L11.809 23.8331L10.3435 25.2986L18.7044 33.6595L20.1699 32.194Z" fill="#E6B01C"/>
<path fill-rule="evenodd" clip-rule="evenodd" d="M14.9121 30.729L14.4937 31.1474L11.6533 30.7121L13.2743 29.0912L14.9121 30.729ZM10.3604 32.0051L13.2008 32.4404L11.8554 33.7858L9.01503 33.3505L10.3604 32.0051ZM7.72197 34.6435L6.63746 35.728L8.27531 37.3659L10.5624 35.0788L7.72197 34.6435Z" fill="#E6B01C"/>
<path fill-rule="evenodd" clip-rule="evenodd" d="M4.22356 39.8656C4.58156 40.2236 5.03773 40.4674 5.53426 40.5662C6.03083 40.665 6.54557 40.6143 7.01336 40.4205C7.48109 40.2268 7.88092 39.8986 8.1622 39.4777C8.4435 39.0566 8.59363 38.5618 8.59363 38.0555C8.59363 37.5492 8.44351 37.0542 8.1622 36.6332C7.88089 36.2123 7.48109 35.8842 7.01332 35.6904C6.54556 35.4967 6.03087 35.4459 5.53429 35.5447C5.03771 35.6435 4.58158 35.8873 4.22356 36.2453C3.74349 36.7254 3.47379 37.3765 3.47378 38.0554C3.47377 38.7344 3.74347 39.3855 4.22355 39.8656L4.22356 39.8656ZM4.91335 39.1758C5.13493 39.3974 5.41725 39.5483 5.72459 39.6094C6.03192 39.6705 6.35047 39.6392 6.63998 39.5193C6.9295 39.3993 7.17697 39.1962 7.35107 38.9357C7.52518 38.6752 7.61808 38.3688 7.61809 38.0555C7.61806 37.7421 7.52514 37.4358 7.35108 37.1752C7.17697 36.9147 6.92952 36.7116 6.64001 36.5917C6.35051 36.4717 6.03194 36.4404 5.72455 36.5015C5.41723 36.5627 5.13493 36.7135 4.91334 36.9351C4.76608 37.0822 4.64931 37.2569 4.56957 37.4492C4.48989 37.6414 4.44882 37.8475 4.44872 38.0556C4.4487 38.2638 4.48965 38.4699 4.56927 38.6622C4.6489 38.8545 4.76565 39.0292 4.91281 39.1763L4.91335 39.1758Z" fill="#E6B01C"/>
<path fill-rule="evenodd" clip-rule="evenodd" d="M39.8655 4.22346L34.306 5.12879L14.5247 25.8587L16.0328 27.3669L24.7384 18.6613C24.8079 18.5978 24.8993 18.5635 24.9934 18.5657C25.0876 18.5678 25.1773 18.6061 25.2439 18.6727C25.3105 18.7393 25.3489 18.8291 25.351 18.9232C25.3532 19.0174 25.3189 19.1087 25.2553 19.1783L16.5498 27.8838L18.2308 29.5649L38.9608 9.78351L39.8655 4.22346Z" fill="#E6B01C"/>
<path fill-rule="evenodd" clip-rule="evenodd" d="M25.3516 18.9238C25.3499 18.8444 25.3221 18.7683 25.2736 18.7064L39.7345 4.2455L39.8661 4.22401L38.9613 9.78408L18.2315 29.5655L16.5503 27.8843L25.2558 19.1788C25.3194 19.1094 25.3536 19.018 25.3516 18.9238ZM14.5121 29.4674L15.9776 28.0019L20.1698 32.1941L18.7043 33.6596L14.5121 29.4674ZM14.0816 29.8979L13.0534 30.9261L14.4938 31.1469L14.9122 30.7285L14.0816 29.8979ZM11.76 32.2195L10.4146 33.5649L11.8551 33.7857L13.2004 32.4403L11.76 32.2195ZM9.12172 34.8578L7.78833 36.1912L7.44459 36.5349L7.098 36.8815C7.19356 36.9681 7.2786 37.0665 7.35095 37.1748C7.43506 37.3007 7.50014 37.4373 7.54505 37.5802C7.59304 37.7332 7.61786 37.8931 7.6179 38.055C7.61785 38.0954 7.61632 38.1358 7.61321 38.1759C7.5925 38.4467 7.5025 38.7084 7.35089 38.9354C7.17687 39.1959 6.92931 39.3989 6.63984 39.5188C6.35033 39.6387 6.03182 39.6701 5.72448 39.609C5.4171 39.5479 5.13473 39.3969 4.91319 39.1754C4.89492 39.1571 4.87715 39.1386 4.8598 39.1197L4.16958 39.8099C4.18719 39.8286 4.20506 39.847 4.22333 39.8653C4.58124 40.2232 5.03755 40.467 5.53422 40.5658C6.03067 40.6645 6.54542 40.6139 7.01321 40.4201C7.48089 40.2263 7.88075 39.8982 8.16194 39.4772C8.33474 39.2186 8.45816 38.932 8.52745 38.6319C8.54969 38.5358 8.56645 38.4385 8.57736 38.3403C8.58794 38.2459 8.59332 38.1506 8.59348 38.0551C8.59348 37.7607 8.54278 37.47 8.44503 37.1957L10.5623 35.0784L9.12172 34.8578Z" fill="#FFC404"/>
</svg>
